<svg width="48" height="48" viewBox="0 0 48 48" fill="none" xmlns="http://www.w3.org/2000/svg">
<circle cx="24" cy="24" r="24" fill="#208AEB"/>
<path d="M14.29 19.78V29.51C14.29 31.41 15.64 32.19 17.28 31.25L19.63 29.91C20.14 29.62 20.99 29.59 21.52 29.86L26.77 32.49C27.3 32.75 28.15 32.73 28.66 32.44L32.99 29.96C33.54 29.64 34 28.86 34 28.22V18.49C34 16.59 32.65 15.81 31.01 16.75L28.66 18.09C28.15 18.38 27.3 18.41 26.77 18.14L21.52 15.52C20.99 15.26 20.14 15.28 19.63 15.57L15.3 18.05C14.74 18.37 14.29 19.15 14.29 19.78Z" stroke="white" stroke-width="1.5" stroke-linecap="round" stroke-linejoin="round"/>
<path d="M20.5596 16V29" stroke="white" stroke-width="1.5" stroke-linecap="round" stroke-linejoin="round"/>
<path d="M27.7305 18.62V32" stroke="white" stroke-width="1.5" stroke-linecap="round" stroke-linejoin="round"/>
</svg>
