<svg width="48" height="48" viewBox="0 0 48 48" fill="none" xmlns="http://www.w3.org/2000/svg">
<circle cx="24" cy="24" r="24" fill="#208AEB"/>
<path d="M32.97 30.33C32.97 30.69 32.89 31.06 32.72 31.42C32.55 31.78 32.33 32.12 32.04 32.44C31.55 32.98 31.01 33.37 30.4 33.62C29.8 33.87 29.15 34 28.45 34C27.43 34 26.34 33.76 25.19 33.27C24.04 32.78 22.89 32.12 21.75 31.29C20.6 30.45 19.51 29.52 18.47 28.49C17.44 27.45 16.51 26.36 15.68 25.22C14.86 24.08 14.2 22.94 13.72 21.81C13.24 20.67 13 19.58 13 18.54C13 17.86 13.12 17.21 13.36 16.61C13.6 16 13.98 15.44 14.51 14.94C15.15 14.31 15.85 14 16.59 14C16.87 14 17.15 14.06 17.4 14.18C17.66 14.3 17.89 14.48 18.07 14.74L20.39 18.01C20.57 18.26 20.7 18.49 20.79 18.71C20.88 18.92 20.93 19.13 20.93 19.32C20.93 19.56 20.86 19.8 20.72 20.03C20.59 20.26 20.4 20.5 20.16 20.74L19.4 21.53C19.29 21.64 19.24 21.77 19.24 21.93C19.24 22.01 19.25 22.08 19.27 22.16C19.3 22.24 19.33 22.3 19.35 22.36C19.53 22.69 19.84 23.12 20.28 23.64C20.73 24.16 21.21 24.69 21.73 25.22C22.27 25.75 22.79 26.24 23.32 26.69C23.84 27.13 24.27 27.43 24.61 27.61C24.66 27.63 24.72 27.66 24.79 27.69C24.87 27.72 24.95 27.73 25.04 27.73C25.21 27.73 25.34 27.67 25.45 27.56L26.21 26.81C26.46 26.56 26.7 26.37 26.93 26.25C27.16 26.11 27.39 26.04 27.64 26.04C27.83 26.04 28.03 26.08 28.25 26.17C28.47 26.26 28.7 26.39 28.95 26.56L32.26 28.91C32.52 29.09 32.7 29.3 32.81 29.55C32.91 29.8 32.97 30.05 32.97 30.33Z" stroke="white" stroke-width="1.5" stroke-miterlimit="10"/>
</svg>
