<svg width="48" height="48" viewBox="0 0 48 48" fill="none" xmlns="http://www.w3.org/2000/svg">
<circle cx="24" cy="24" r="24" fill="#208AEB"/>
<path fill-rule="evenodd" clip-rule="evenodd" d="M31 30H17C16.449 30 16 29.552 16 29V19.25L23.4 24.8C23.578 24.934 23.789 25 24 25C24.211 25 24.422 24.934 24.6 24.8L32 19.25V29C32 29.552 31.551 30 31 30ZM30.333 18L24 22.75L17.667 18H30.333ZM31 16H17C15.346 16 14 17.346 14 19V29C14 30.654 15.346 32 17 32H31C32.654 32 34 30.654 34 29V19C34 17.346 32.654 16 31 16Z" fill="white"/>
</svg>
