<svg width="21" height="20" viewBox="0 0 21 20" fill="none" xmlns="http://www.w3.org/2000/svg">
<path fill-rule="evenodd" clip-rule="evenodd" d="M10.6852 11.25C9.98608 11.25 9.41715 10.6892 9.41715 10C9.41715 9.31083 9.98608 8.75 10.6852 8.75C11.3843 8.75 11.9533 9.31083 11.9533 10C11.9533 10.6892 11.3843 11.25 10.6852 11.25ZM10.6852 7.08333C9.05364 7.08333 7.7264 8.39166 7.7264 10C7.7264 11.6083 9.05364 12.9167 10.6852 12.9167C12.3168 12.9167 13.644 11.6083 13.644 10C13.644 8.39166 12.3168 7.08333 10.6852 7.08333ZM10.8709 14.1647C7.23076 14.248 4.85611 11.1788 4.06823 9.99633C4.93558 8.65883 7.12002 5.9205 10.4998 5.8355C14.1256 5.74466 16.5138 8.82133 17.3017 10.0038C16.4352 11.3413 14.2499 14.0797 10.8709 14.1647ZM19.0271 9.5855C18.4877 8.65883 15.5086 4.01383 10.4567 4.16966C5.78349 4.28633 3.06562 8.34466 2.34367 9.5855C2.19404 9.84216 2.19404 10.158 2.34367 10.4147C2.87541 11.3288 5.74967 15.833 10.7061 15.833C10.7754 15.833 10.8447 15.8322 10.914 15.8305C15.5864 15.713 18.3051 11.6555 19.0271 10.4147C19.1759 10.158 19.1759 9.84216 19.0271 9.5855Z" fill="#8F9BB3"/>
</svg>
