<svg width="309" height="35" viewBox="0 0 309 35" fill="none" xmlns="http://www.w3.org/2000/svg">
<rect width="125" height="35" rx="4" fill="#E6C623"/>
<path d="M23.768 23.168C22.3213 23.168 21.1033 22.6733 20.114 21.684C19.1247 20.6853 18.63 19.4673 18.63 18.03V17.4H27.548C27.38 16.392 26.9413 15.594 26.232 15.006C25.532 14.418 24.7107 14.124 23.768 14.124C23.0213 14.124 22.3353 14.3013 21.71 14.656C21.094 15.0013 20.6413 15.4493 20.352 16H18.91C19.1993 15.1413 19.7967 14.4087 20.702 13.802C21.6073 13.1953 22.6293 12.892 23.768 12.892C25.2053 12.892 26.4187 13.3867 27.408 14.376C28.4067 15.3653 28.906 16.5833 28.906 18.03C28.906 19.4673 28.4067 20.6853 27.408 21.684C26.4187 22.6733 25.2053 23.168 23.768 23.168ZM21.234 21.012C21.9527 21.628 22.7973 21.936 23.768 21.936C24.7387 21.936 25.5787 21.6327 26.288 21.026C26.9973 20.41 27.422 19.5887 27.562 18.562H19.974C20.1047 19.5793 20.5247 20.396 21.234 21.012ZM30.6594 23V16H31.8634V17.078C32.3394 16.266 33.0814 15.86 34.0894 15.86C34.8827 15.86 35.5221 16.1167 36.0074 16.63C36.4927 17.1433 36.7354 17.8293 36.7354 18.688V23H35.5454V18.87C35.5454 18.282 35.3961 17.82 35.0974 17.484C34.7987 17.1387 34.3974 16.966 33.8934 16.966C33.3147 16.966 32.8294 17.1947 32.4374 17.652C32.0547 18.1093 31.8634 18.7347 31.8634 19.528V23H30.6594ZM45.3885 23.14C44.3338 23.14 43.4612 22.79 42.7705 22.09C42.0798 21.3807 41.7345 20.5173 41.7345 19.5C41.7345 18.4827 42.0798 17.624 42.7705 16.924C43.4612 16.2147 44.3338 15.86 45.3885 15.86C46.2565 15.86 47.0078 16.1027 47.6425 16.588C48.2772 17.064 48.7018 17.6893 48.9165 18.464H47.6285C47.4605 18.0067 47.1805 17.6427 46.7885 17.372C46.3965 17.1013 45.9298 16.966 45.3885 16.966C44.6698 16.966 44.0818 17.2087 43.6245 17.694C43.1765 18.1793 42.9525 18.7813 42.9525 19.5C42.9525 20.2187 43.1765 20.8207 43.6245 21.306C44.0818 21.7913 44.6698 22.034 45.3885 22.034C45.9298 22.034 46.3965 21.8987 46.7885 21.628C47.1805 21.3573 47.4605 20.9933 47.6285 20.536H48.9165C48.7112 21.3107 48.2912 21.9407 47.6565 22.426C47.0218 22.902 46.2658 23.14 45.3885 23.14ZM43.9185 25.856V25.086C44.1985 25.2447 44.5532 25.324 44.9825 25.324C45.2532 25.324 45.4772 25.2727 45.6545 25.17C45.8412 25.0767 45.9345 24.9367 45.9345 24.75C45.9345 24.47 45.7152 24.33 45.2765 24.33C45.0618 24.33 44.8565 24.3767 44.6605 24.47L44.1985 24.176L44.9405 22.958H45.6965L45.2205 23.742C45.3605 23.6767 45.5472 23.644 45.7805 23.644C46.1165 23.644 46.3872 23.7373 46.5925 23.924C46.8072 24.12 46.9145 24.3813 46.9145 24.708C46.9145 25.1093 46.7372 25.436 46.3825 25.688C46.0372 25.94 45.6078 26.066 45.0945 26.066C44.5998 26.066 44.2078 25.996 43.9185 25.856ZM53.619 23.14C52.5643 23.14 51.687 22.79 50.987 22.09C50.2963 21.3807 49.951 20.5173 49.951 19.5C49.951 18.4827 50.2963 17.624 50.987 16.924C51.687 16.2147 52.5643 15.86 53.619 15.86C54.6643 15.86 55.5323 16.2147 56.223 16.924C56.923 17.624 57.273 18.4827 57.273 19.5C57.273 20.5173 56.923 21.3807 56.223 22.09C55.5323 22.79 54.6643 23.14 53.619 23.14ZM51.855 21.292C52.3123 21.7773 52.9003 22.02 53.619 22.02C54.3376 22.02 54.921 21.7773 55.369 21.292C55.817 20.8067 56.041 20.2093 56.041 19.5C56.041 18.7907 55.817 18.1933 55.369 17.708C54.921 17.2227 54.3376 16.98 53.619 16.98C52.9003 16.98 52.3123 17.2227 51.855 17.708C51.407 18.1933 51.183 18.7907 51.183 19.5C51.183 20.2093 51.407 20.8067 51.855 21.292ZM63.4454 23L61.3174 20.354L59.1894 23H57.6914L60.5614 19.458L57.9294 16H59.3854L61.3174 18.534L63.2354 16H64.7054L62.0594 19.458L64.9294 23H63.4454ZM71.7962 23.14C71.0122 23.14 70.3542 22.9487 69.8222 22.566C69.2995 22.1833 69.0102 21.6513 68.9542 20.97H70.1862C70.2609 21.362 70.4475 21.6513 70.7462 21.838C71.0542 22.0247 71.4089 22.118 71.8102 22.118C72.2115 22.118 72.5335 22.0387 72.7762 21.88C73.0282 21.7213 73.1542 21.4927 73.1542 21.194C73.1542 20.914 73.0609 20.6853 72.8742 20.508C72.6969 20.3307 72.4029 20.186 71.9922 20.074L70.9842 19.808C69.7802 19.4907 69.1782 18.8047 69.1782 17.75C69.1782 17.1807 69.4022 16.7233 69.8502 16.378C70.3075 16.0327 70.8909 15.86 71.6002 15.86C72.3189 15.86 72.9069 16.0513 73.3642 16.434C73.8309 16.8073 74.0922 17.2833 74.1482 17.862H72.9442C72.8509 17.554 72.6829 17.3113 72.4402 17.134C72.2069 16.9567 71.9269 16.868 71.6002 16.868C71.2549 16.868 70.9655 16.9473 70.7322 17.106C70.5082 17.2647 70.3962 17.4747 70.3962 17.736C70.3962 17.988 70.4802 18.1933 70.6482 18.352C70.8162 18.5107 71.0869 18.6413 71.4602 18.744L72.5802 19.038C73.7749 19.3367 74.3722 20.0273 74.3722 21.11C74.3722 21.782 74.1342 22.2907 73.6582 22.636C73.1822 22.972 72.5615 23.14 71.7962 23.14ZM78.9614 23.14C77.9907 23.14 77.174 22.7853 76.5114 22.076C75.858 21.3667 75.5314 20.508 75.5314 19.5C75.5314 18.492 75.858 17.6333 76.5114 16.924C77.174 16.2147 77.9907 15.86 78.9614 15.86C79.4747 15.86 79.9507 15.9767 80.3894 16.21C80.8374 16.434 81.1827 16.7233 81.4254 17.078V16H82.6294V23H81.4254V21.922C81.1827 22.2767 80.8374 22.5707 80.3894 22.804C79.9507 23.028 79.4747 23.14 78.9614 23.14ZM79.1434 22.034C79.834 22.034 80.4034 21.7913 80.8514 21.306C81.2994 20.8207 81.5234 20.2187 81.5234 19.5C81.5234 18.7813 81.2994 18.1793 80.8514 17.694C80.4034 17.2087 79.834 16.966 79.1434 16.966C78.4434 16.966 77.8694 17.2087 77.4214 17.694C76.9734 18.1793 76.7494 18.7813 76.7494 19.5C76.7494 20.2187 76.9734 20.8207 77.4214 21.306C77.8694 21.7913 78.4434 22.034 79.1434 22.034ZM87.6117 23.07C86.9677 23.07 86.4497 22.888 86.0577 22.524C85.6657 22.16 85.4697 21.628 85.4697 20.928V17.106H83.9857V16H85.4697V14.054H86.6737V16H88.6897V17.106H86.6737V20.774C86.6737 21.2127 86.7671 21.5207 86.9537 21.698C87.1404 21.8753 87.4344 21.964 87.8357 21.964C88.1904 21.964 88.4751 21.9173 88.6897 21.824V22.902C88.3537 23.014 87.9944 23.07 87.6117 23.07ZM93.016 23.14C92.0454 23.14 91.2287 22.7853 90.566 22.076C89.9127 21.3667 89.586 20.508 89.586 19.5C89.586 18.492 89.9127 17.6333 90.566 16.924C91.2287 16.2147 92.0454 15.86 93.016 15.86C93.5294 15.86 94.0054 15.9767 94.444 16.21C94.892 16.434 95.2374 16.7233 95.48 17.078V16H96.684V23H95.48V21.922C95.2374 22.2767 94.892 22.5707 94.444 22.804C94.0054 23.028 93.5294 23.14 93.016 23.14ZM93.198 22.034C93.8887 22.034 94.458 21.7913 94.906 21.306C95.354 20.8207 95.578 20.2187 95.578 19.5C95.578 18.7813 95.354 18.1793 94.906 17.694C94.458 17.2087 93.8887 16.966 93.198 16.966C92.498 16.966 91.924 17.2087 91.476 17.694C91.028 18.1793 90.804 18.7813 90.804 19.5C90.804 20.2187 91.028 20.8207 91.476 21.306C91.924 21.7913 92.498 22.034 93.198 22.034ZM98.9504 23V16H100.154V17.078C100.63 16.266 101.372 15.86 102.38 15.86C103.174 15.86 103.813 16.1167 104.298 16.63C104.784 17.1433 105.026 17.8293 105.026 18.688V23H103.836V18.87C103.836 18.282 103.687 17.82 103.388 17.484C103.09 17.1387 102.688 16.966 102.184 16.966C101.606 16.966 101.12 17.1947 100.728 17.652C100.346 18.1093 100.154 18.7347 100.154 19.528V23H98.9504Z" fill="white"/>
<path d="M147.144 24V21.152H141.272V19.728L147.336 12.64H148.904V19.52H150.424V21.152H148.904V24H147.144ZM143.48 19.52H147.144V15.264L143.48 19.52ZM153.128 24.128C152.754 24.128 152.429 23.9947 152.152 23.728C151.885 23.4507 151.752 23.12 151.752 22.736C151.752 22.3627 151.885 22.0373 152.152 21.76C152.429 21.4827 152.754 21.344 153.128 21.344C153.512 21.344 153.837 21.4827 154.104 21.76C154.381 22.0373 154.52 22.3627 154.52 22.736C154.52 23.12 154.381 23.4507 154.104 23.728C153.837 23.9947 153.512 24.128 153.128 24.128ZM159.714 24.16C158.679 24.16 157.773 23.8347 156.994 23.184C156.215 22.5333 155.815 21.744 155.794 20.816H157.602C157.719 21.296 157.97 21.6853 158.354 21.984C158.749 22.2827 159.202 22.432 159.714 22.432C160.343 22.432 160.855 22.2293 161.25 21.824C161.645 21.408 161.842 20.9067 161.842 20.32C161.842 19.712 161.645 19.2107 161.25 18.816C160.866 18.4107 160.37 18.208 159.762 18.208C158.845 18.208 158.183 18.5973 157.778 19.376L156.194 18.88L157.41 12.64H162.818V14.352H158.786L158.258 17.072C158.727 16.7413 159.319 16.576 160.034 16.576C161.101 16.576 161.965 16.944 162.626 17.68C163.287 18.416 163.618 19.3547 163.618 20.496C163.618 21.5627 163.25 22.4427 162.514 23.136C161.789 23.8187 160.855 24.16 159.714 24.16Z" fill="#D9C405"/>
<path fill-rule="evenodd" clip-rule="evenodd" d="M190.562 27.0007C190.404 27.0007 190.245 26.9637 190.099 26.8877L185 24.2237L179.902 26.8877C179.564 27.0627 179.156 27.0327 178.85 26.8087C178.542 26.5847 178.389 26.2057 178.454 25.8307L179.425 20.2027L175.305 16.2177C175.031 15.9527 174.932 15.5547 175.049 15.1907C175.166 14.8287 175.479 14.5637 175.857 14.5097L181.557 13.6817L184.105 8.55565C184.443 7.87565 185.558 7.87565 185.896 8.55565L188.444 13.6817L194.144 14.5097C194.522 14.5637 194.835 14.8287 194.952 15.1907C195.069 15.5547 194.97 15.9527 194.696 16.2177L190.576 20.2027L191.547 25.8307C191.612 26.2057 191.458 26.5847 191.151 26.8087C190.977 26.9367 190.77 27.0007 190.562 27.0007Z" fill="#E5C623"/>
<path fill-rule="evenodd" clip-rule="evenodd" d="M218.562 27.0007C218.404 27.0007 218.245 26.9637 218.099 26.8877L213 24.2237L207.902 26.8877C207.564 27.0627 207.156 27.0327 206.85 26.8087C206.542 26.5847 206.389 26.2057 206.454 25.8307L207.425 20.2027L203.305 16.2177C203.031 15.9527 202.932 15.5547 203.049 15.1907C203.166 14.8287 203.479 14.5637 203.857 14.5097L209.557 13.6817L212.105 8.55565C212.443 7.87565 213.558 7.87565 213.896 8.55565L216.444 13.6817L222.144 14.5097C222.522 14.5637 222.835 14.8287 222.952 15.1907C223.069 15.5547 222.97 15.9527 222.696 16.2177L218.576 20.2027L219.547 25.8307C219.612 26.2057 219.458 26.5847 219.151 26.8087C218.977 26.9367 218.77 27.0007 218.562 27.0007Z" fill="#E5C623"/>
<path fill-rule="evenodd" clip-rule="evenodd" d="M246.562 27.0007C246.404 27.0007 246.245 26.9637 246.099 26.8877L241 24.2237L235.902 26.8877C235.564 27.0627 235.156 27.0327 234.85 26.8087C234.542 26.5847 234.389 26.2057 234.454 25.8307L235.425 20.2027L231.305 16.2177C231.031 15.9527 230.932 15.5547 231.049 15.1907C231.166 14.8287 231.479 14.5637 231.857 14.5097L237.557 13.6817L240.105 8.55565C240.443 7.87565 241.558 7.87565 241.896 8.55565L244.444 13.6817L250.144 14.5097C250.522 14.5637 250.835 14.8287 250.952 15.1907C251.069 15.5547 250.97 15.9527 250.696 16.2177L246.576 20.2027L247.547 25.8307C247.612 26.2057 247.458 26.5847 247.151 26.8087C246.977 26.9367 246.77 27.0007 246.562 27.0007Z" fill="#E5C623"/>
<path fill-rule="evenodd" clip-rule="evenodd" d="M274.562 27.0007C274.404 27.0007 274.245 26.9637 274.099 26.8877L269 24.2237L263.902 26.8877C263.564 27.0627 263.156 27.0327 262.85 26.8087C262.542 26.5847 262.389 26.2057 262.454 25.8307L263.425 20.2027L259.305 16.2177C259.031 15.9527 258.932 15.5547 259.049 15.1907C259.166 14.8287 259.479 14.5637 259.857 14.5097L265.557 13.6817L268.105 8.55565C268.443 7.87565 269.558 7.87565 269.896 8.55565L272.444 13.6817L278.144 14.5097C278.522 14.5637 278.835 14.8287 278.952 15.1907C279.069 15.5547 278.97 15.9527 278.696 16.2177L274.576 20.2027L275.547 25.8307C275.612 26.2057 275.458 26.5847 275.151 26.8087C274.977 26.9367 274.77 27.0007 274.562 27.0007Z" fill="#E5C623"/>
<path fill-rule="evenodd" clip-rule="evenodd" d="M297 22.05C297.159 22.05 297.318 22.088 297.463 22.163L301.232 24.133L300.515 19.976C300.458 19.65 300.567 19.318 300.805 19.087L303.841 16.151L299.638 15.539C299.313 15.492 299.032 15.289 298.886 14.995L297 11.201L295.114 14.995C294.968 15.289 294.687 15.492 294.362 15.539L290.159 16.151L293.195 19.087C293.433 19.318 293.542 19.65 293.485 19.976L292.768 24.133L296.537 22.163C296.682 22.088 296.841 22.05 297 22.05ZM302.562 26.955C302.403 26.955 302.244 26.918 302.099 26.842L297 24.178L291.901 26.842C291.563 27.018 291.155 26.987 290.85 26.763C290.542 26.539 290.389 26.16 290.453 25.785L291.425 20.157L287.305 16.172C287.03 15.907 286.932 15.509 287.049 15.146C287.165 14.783 287.479 14.519 287.856 14.464L293.557 13.636L296.104 8.51C296.442 7.83 297.558 7.83 297.896 8.51L300.443 13.636L306.144 14.464C306.521 14.519 306.835 14.783 306.951 15.146C307.068 15.509 306.97 15.907 306.695 16.172L302.575 20.157L303.547 25.785C303.611 26.16 303.458 26.539 303.15 26.763C302.977 26.891 302.77 26.955 302.562 26.955Z" fill="white"/>
</svg>
