<svg width="213" height="213" viewBox="0 0 213 213" fill="none" xmlns="http://www.w3.org/2000/svg">
<g filter="url(#filter0_d_226:581)">
<circle cx="106.5" cy="106.5" r="82.5" fill="white"/>
</g>
<g filter="url(#filter1_d_226:581)">
<path fill-rule="evenodd" clip-rule="evenodd" d="M99.8776 127C98.9576 127 98.0776 126.62 97.4476 125.95L81.2376 108.687C79.9743 107.347 80.0443 105.237 81.3843 103.977C82.7276 102.717 84.8376 102.783 86.0943 104.123L99.8443 118.76L127.871 88.0867C129.118 86.7234 131.224 86.6334 132.584 87.8734C133.941 89.1134 134.034 91.2234 132.794 92.5801L102.338 125.913C101.714 126.6 100.828 126.993 99.9009 127H99.8776Z" fill="#00D68F"/>
</g>
<defs>
<filter id="filter0_d_226:581" x="0" y="0" width="213" height="213" filterUnits="userSpaceOnUse" color-interpolation-filters="sRGB">
<feFlood flood-opacity="0" result="BackgroundImageFix"/>
<feColorMatrix in="SourceAlpha" type="matrix" values="0 0 0 0 0 0 0 0 0 0 0 0 0 0 0 0 0 0 127 0" result="hardAlpha"/>
<feOffset/>
<feGaussianBlur stdDeviation="12"/>
<feComposite in2="hardAlpha" operator="out"/>
<feColorMatrix type="matrix" values="0 0 0 0 0 0 0 0 0 0 0 0 0 0 0 0 0 0 0.16 0"/>
<feBlend mode="normal" in2="BackgroundImageFix" result="effect1_dropShadow_226:581"/>
<feBlend mode="normal" in="SourceGraphic" in2="effect1_dropShadow_226:581" result="shape"/>
</filter>
<filter id="filter1_d_226:581" x="51" y="51" width="112" height="112" filterUnits="userSpaceOnUse" color-interpolation-filters="sRGB">
<feFlood flood-opacity="0" result="BackgroundImageFix"/>
<feColorMatrix in="SourceAlpha" type="matrix" values="0 0 0 0 0 0 0 0 0 0 0 0 0 0 0 0 0 0 127 0" result="hardAlpha"/>
<feOffset/>
<feGaussianBlur stdDeviation="8"/>
<feComposite in2="hardAlpha" operator="out"/>
<feColorMatrix type="matrix" values="0 0 0 0 0 0 0 0 0 0 0 0 0 0 0 0 0 0 0.16 0"/>
<feBlend mode="normal" in2="BackgroundImageFix" result="effect1_dropShadow_226:581"/>
<feBlend mode="normal" in="SourceGraphic" in2="effect1_dropShadow_226:581" result="shape"/>
</filter>
</defs>
</svg>
