<svg width="33" height="31" viewBox="0 0 33 31" fill="none" xmlns="http://www.w3.org/2000/svg">
<path opacity="0.9" d="M7.88656 31H1.11344C0.818237 30.9997 0.535222 30.8917 0.326483 30.6998C0.117744 30.5079 0.000329074 30.2476 0 29.9762V21.0238C0.000329074 20.7524 0.117744 20.4921 0.326483 20.3002C0.535222 20.1083 0.818237 20.0003 1.11344 20H7.88656C8.18176 20.0003 8.46478 20.1083 8.67352 20.3002C8.88226 20.4921 8.99967 20.7524 9 21.0238V29.9762C8.99967 30.2476 8.88226 30.5079 8.67352 30.6998C8.46478 30.8917 8.18176 30.9997 7.88656 31ZM1.11344 20.4906C0.959712 20.4908 0.812335 20.547 0.703634 20.647C0.594933 20.7469 0.533784 20.8824 0.533596 21.0238V29.9762C0.533784 30.1176 0.594933 30.2531 0.703634 30.353C0.812335 30.453 0.959712 30.5092 1.11344 30.5094H7.88656C8.04029 30.5092 8.18766 30.453 8.29637 30.353C8.40507 30.2531 8.46622 30.1176 8.4664 29.9762V21.0238C8.46622 20.8824 8.40507 20.7469 8.29637 20.647C8.18766 20.547 8.04029 20.4908 7.88656 20.4906H1.11344Z" fill="#3F3D56"/>
<path opacity="0.9" d="M19.5583 31H13.4417C13.0595 30.9996 12.693 30.858 12.4228 30.6062C12.1525 30.3545 12.0004 30.0132 12 29.6571V11.3429C12.0004 10.9868 12.1525 10.6455 12.4228 10.3938C12.693 10.142 13.0595 10.0004 13.4417 10H19.5583C19.9405 10.0004 20.307 10.142 20.5772 10.3938C20.8475 10.6455 20.9996 10.9868 21 11.3429V29.6572C20.9995 30.0132 20.8475 30.3545 20.5772 30.6062C20.307 30.858 19.9405 30.9996 19.5583 31ZM13.4417 10.497C13.201 10.4972 12.9701 10.5864 12.7999 10.745C12.6296 10.9036 12.5339 11.1186 12.5336 11.3428V29.6571C12.5339 29.8814 12.6296 30.0964 12.7999 30.255C12.9701 30.4136 13.201 30.5028 13.4417 30.503H19.5583C19.799 30.5028 20.0299 30.4136 20.2001 30.255C20.3704 30.0964 20.4661 29.8814 20.4664 29.6571V11.3429C20.4661 11.1186 20.3704 10.9036 20.2001 10.745C20.0299 10.5864 19.799 10.4972 19.5583 10.497L13.4417 10.497Z" fill="#3F3D56"/>
<path opacity="0.9" d="M31.3221 31H25.6779C25.2331 30.9995 24.8066 30.8296 24.492 30.5275C24.1774 30.2255 24.0005 29.8159 24 29.3888V1.61125C24.0005 1.18407 24.1774 0.774522 24.492 0.47246C24.8066 0.170397 25.2331 0.00048551 25.6779 0H31.3221C31.7669 0.00048551 32.1934 0.170397 32.508 0.47246C32.8226 0.774522 32.9995 1.18407 33 1.61125V29.3888C32.9995 29.8159 32.8226 30.2255 32.508 30.5275C32.1934 30.8296 31.7669 30.9995 31.3221 31ZM25.6779 0.512397C25.3745 0.512727 25.0837 0.628604 24.8691 0.834607C24.6546 1.04061 24.5339 1.31992 24.5336 1.61125V29.3888C24.5339 29.6801 24.6546 29.9594 24.8691 30.1654C25.0837 30.3714 25.3745 30.4873 25.6779 30.4876H31.3221C31.6255 30.4873 31.9163 30.3714 32.1309 30.1654C32.3454 29.9594 32.4661 29.6801 32.4664 29.3888V1.61125C32.4661 1.31992 32.3454 1.04061 32.1309 0.834607C31.9163 0.628604 31.6255 0.512727 31.3221 0.512397H25.6779Z" fill="#3F3D56"/>
<path opacity="0.9" d="M7 21H2V29H7V21Z" fill="#150D97"/>
<path opacity="0.9" d="M18 11H14V29H18V11Z" fill="#150D97"/>
<path opacity="0.9" d="M31 2H26V29H31V2Z" fill="#150D97"/>
</svg>
