<svg width="22" height="21" viewBox="0 0 22 21" fill="none" xmlns="http://www.w3.org/2000/svg">
<path fill-rule="evenodd" clip-rule="evenodd" d="M10.9995 0C4.92551 0 -0.000488281 4.82 -0.000488281 10.767C-0.000488281 15.522 3.15151 19.558 7.52251 20.981C8.07351 21.08 8.27351 20.748 8.27351 20.462C8.27351 20.207 8.26451 19.529 8.25951 18.632C5.19951 19.282 4.55451 17.188 4.55451 17.188C4.05351 15.944 3.33251 15.613 3.33251 15.613C2.33351 14.945 3.40851 14.959 3.40851 14.959C4.51251 15.035 5.09251 16.068 5.09251 16.068C6.07351 17.714 7.66651 17.238 8.29451 16.963C8.39451 16.268 8.67751 15.793 8.99251 15.523C6.54951 15.252 3.98151 14.328 3.98151 10.203C3.98151 9.028 4.41051 8.067 5.11451 7.314C5.00051 7.042 4.62351 5.947 5.22151 4.465C5.22151 4.465 6.14551 4.176 8.24751 5.568C9.12451 5.329 10.0655 5.211 11.0005 5.206C11.9345 5.211 12.8755 5.329 13.7545 5.568C15.8545 4.176 16.7765 4.465 16.7765 4.465C17.3765 5.947 16.9995 7.042 16.8855 7.314C17.5905 8.067 18.0165 9.028 18.0165 10.203C18.0165 14.339 15.4445 15.249 12.9945 15.516C13.3895 15.848 13.7405 16.505 13.7405 17.509C13.7405 18.948 13.7275 20.109 13.7275 20.462C13.7275 20.75 13.9255 21.085 14.4835 20.98C18.8505 19.554 21.9995 15.521 21.9995 10.767C21.9995 4.82 17.0745 0 10.9995 0Z" fill="#192038"/>
</svg>
