<svg width="182" height="24" viewBox="0 0 182 24" fill="none" xmlns="http://www.w3.org/2000/svg">
<path d="M5.376 15V12.508H0.238V11.262L5.544 5.06H6.916V11.08H8.246V12.508H6.916V15H5.376ZM2.17 11.08H5.376V7.356L2.17 11.08ZM10.6117 15.112C10.285 15.112 10.0003 14.9953 9.75767 14.762C9.52434 14.5193 9.40767 14.23 9.40767 13.894C9.40767 13.5673 9.52434 13.2827 9.75767 13.04C10.0003 12.7973 10.285 12.676 10.6117 12.676C10.9477 12.676 11.2323 12.7973 11.4657 13.04C11.7083 13.2827 11.8297 13.5673 11.8297 13.894C11.8297 14.23 11.7083 14.5193 11.4657 14.762C11.2323 14.9953 10.9477 15.112 10.6117 15.112ZM14.9608 15H13.2248L17.7888 6.558H12.9028V5.06H19.6228V6.376L14.9608 15Z" fill="#DD9608"/>
<path fill-rule="evenodd" clip-rule="evenodd" d="M41.6348 17.5006C41.5031 17.5006 41.3706 17.4697 41.249 17.4064L36.9998 15.1864L32.7515 17.4064C32.4698 17.5522 32.1298 17.5272 31.8748 17.3406C31.6181 17.1539 31.4906 16.8381 31.5448 16.5256L32.354 11.8356L28.9206 8.51474C28.6923 8.29391 28.6098 7.96224 28.7073 7.65891C28.8048 7.35724 29.0656 7.13641 29.3806 7.09141L34.1306 6.40141L36.254 2.12974C36.5356 1.56308 37.4648 1.56308 37.7465 2.12974L39.8698 6.40141L44.6198 7.09141C44.9348 7.13641 45.1956 7.35724 45.2931 7.65891C45.3906 7.96224 45.3081 8.29391 45.0798 8.51474L41.6465 11.8356L42.4556 16.5256C42.5098 16.8381 42.3815 17.1539 42.1256 17.3406C41.9806 17.4472 41.8081 17.5006 41.6348 17.5006Z" fill="#FFAA00"/>
<path fill-rule="evenodd" clip-rule="evenodd" d="M67.6348 17.5006C67.5031 17.5006 67.3706 17.4697 67.249 17.4064L62.9998 15.1864L58.7515 17.4064C58.4698 17.5522 58.1298 17.5272 57.8748 17.3406C57.6181 17.1539 57.4906 16.8381 57.5448 16.5256L58.354 11.8356L54.9206 8.51474C54.6923 8.29391 54.6098 7.96224 54.7073 7.65891C54.8048 7.35724 55.0656 7.13641 55.3806 7.09141L60.1306 6.40141L62.254 2.12974C62.5356 1.56308 63.4648 1.56308 63.7465 2.12974L65.8698 6.40141L70.6198 7.09141C70.9348 7.13641 71.1956 7.35724 71.2931 7.65891C71.3906 7.96224 71.3081 8.29391 71.0798 8.51474L67.6465 11.8356L68.4556 16.5256C68.5098 16.8381 68.3815 17.1539 68.1256 17.3406C67.9806 17.4472 67.8081 17.5006 67.6348 17.5006Z" fill="#FFAA00"/>
<path fill-rule="evenodd" clip-rule="evenodd" d="M93.6348 17.5006C93.5031 17.5006 93.3706 17.4697 93.249 17.4064L88.9998 15.1864L84.7515 17.4064C84.4698 17.5522 84.1298 17.5272 83.8748 17.3406C83.6181 17.1539 83.4906 16.8381 83.5448 16.5256L84.354 11.8356L80.9206 8.51474C80.6923 8.29391 80.6098 7.96224 80.7073 7.65891C80.8048 7.35724 81.0656 7.13641 81.3806 7.09141L86.1306 6.40141L88.254 2.12974C88.5356 1.56308 89.4648 1.56308 89.7465 2.12974L91.8698 6.40141L96.6198 7.09141C96.9348 7.13641 97.1956 7.35724 97.2931 7.65891C97.3906 7.96224 97.3081 8.29391 97.0798 8.51474L93.6465 11.8356L94.4556 16.5256C94.5098 16.8381 94.3815 17.1539 94.1256 17.3406C93.9806 17.4472 93.8081 17.5006 93.6348 17.5006Z" fill="#FFAA00"/>
<path fill-rule="evenodd" clip-rule="evenodd" d="M119.635 17.5006C119.503 17.5006 119.371 17.4697 119.249 17.4064L115 15.1864L110.751 17.4064C110.47 17.5522 110.13 17.5272 109.875 17.3406C109.618 17.1539 109.491 16.8381 109.545 16.5256L110.354 11.8356L106.921 8.51474C106.692 8.29391 106.61 7.96224 106.707 7.65891C106.805 7.35724 107.066 7.13641 107.381 7.09141L112.131 6.40141L114.254 2.12974C114.536 1.56308 115.465 1.56308 115.746 2.12974L117.87 6.40141L122.62 7.09141C122.935 7.13641 123.196 7.35724 123.293 7.65891C123.391 7.96224 123.308 8.29391 123.08 8.51474L119.646 11.8356L120.456 16.5256C120.51 16.8381 120.381 17.1539 120.126 17.3406C119.981 17.4472 119.808 17.5006 119.635 17.5006Z" fill="#FFAA00"/>
<path fill-rule="evenodd" clip-rule="evenodd" d="M145.635 17.5006C145.503 17.5006 145.371 17.4697 145.249 17.4064L141 15.1864L136.751 17.4064C136.47 17.5522 136.13 17.5272 135.875 17.3406C135.618 17.1539 135.491 16.8381 135.545 16.5256L136.354 11.8356L132.921 8.51474C132.692 8.29391 132.61 7.96224 132.707 7.65891C132.805 7.35724 133.066 7.13641 133.381 7.09141L138.131 6.40141L140.254 2.12974C140.536 1.56308 141.465 1.56308 141.746 2.12974L143.87 6.40141L148.62 7.09141C148.935 7.13641 149.196 7.35724 149.293 7.65891C149.391 7.96224 149.308 8.29391 149.08 8.51474L145.646 11.8356L146.456 16.5256C146.51 16.8381 146.381 17.1539 146.126 17.3406C145.981 17.4472 145.808 17.5006 145.635 17.5006Z" fill="#FFAA00"/>
<path opacity="0.6" d="M161.64 19.24H160.394C159.199 17.0653 158.602 14.8253 158.602 12.52C158.602 10.2147 159.199 7.97467 160.394 5.8H161.64C160.511 7.99333 159.946 10.2333 159.946 12.52C159.946 14.8067 160.511 17.0467 161.64 19.24ZM169.23 15.488V17H162.65V16.44C162.65 16.0853 162.701 15.7493 162.804 15.432C162.916 15.1053 163.033 14.8347 163.154 14.62C163.275 14.4053 163.476 14.1673 163.756 13.906C164.036 13.6353 164.251 13.444 164.4 13.332C164.549 13.2107 164.811 13.0147 165.184 12.744C165.567 12.4733 165.809 12.3007 165.912 12.226C166.5 11.7967 166.925 11.4187 167.186 11.092C167.447 10.7653 167.578 10.3733 167.578 9.916C167.578 9.45867 167.438 9.09467 167.158 8.824C166.878 8.544 166.491 8.404 165.996 8.404C165.483 8.404 165.058 8.558 164.722 8.866C164.386 9.16467 164.213 9.57533 164.204 10.098H162.65C162.65 9.15533 162.967 8.38533 163.602 7.788C164.246 7.19067 165.049 6.892 166.01 6.892C166.897 6.892 167.639 7.15333 168.236 7.676C168.833 8.19867 169.132 8.93133 169.132 9.874C169.132 10.6207 168.959 11.2507 168.614 11.764C168.278 12.268 167.718 12.8 166.934 13.36C166.813 13.4533 166.589 13.612 166.262 13.836C165.935 14.06 165.693 14.2327 165.534 14.354C165.385 14.4753 165.221 14.6433 165.044 14.858C164.867 15.0633 164.745 15.2733 164.68 15.488H169.23ZM177.146 15.488V17H170.566V16.44C170.566 16.0853 170.617 15.7493 170.72 15.432C170.832 15.1053 170.949 14.8347 171.07 14.62C171.191 14.4053 171.392 14.1673 171.672 13.906C171.952 13.6353 172.167 13.444 172.316 13.332C172.465 13.2107 172.727 13.0147 173.1 12.744C173.483 12.4733 173.725 12.3007 173.828 12.226C174.416 11.7967 174.841 11.4187 175.102 11.092C175.363 10.7653 175.494 10.3733 175.494 9.916C175.494 9.45867 175.354 9.09467 175.074 8.824C174.794 8.544 174.407 8.404 173.912 8.404C173.399 8.404 172.974 8.558 172.638 8.866C172.302 9.16467 172.129 9.57533 172.12 10.098H170.566C170.566 9.15533 170.883 8.38533 171.518 7.788C172.162 7.19067 172.965 6.892 173.926 6.892C174.813 6.892 175.555 7.15333 176.152 7.676C176.749 8.19867 177.048 8.93133 177.048 9.874C177.048 10.6207 176.875 11.2507 176.53 11.764C176.194 12.268 175.634 12.8 174.85 13.36C174.729 13.4533 174.505 13.612 174.178 13.836C173.851 14.06 173.609 14.2327 173.45 14.354C173.301 14.4753 173.137 14.6433 172.96 14.858C172.783 15.0633 172.661 15.2733 172.596 15.488H177.146ZM179.448 19.24H178.202C179.331 17.0467 179.896 14.8067 179.896 12.52C179.896 10.2333 179.331 7.99333 178.202 5.8H179.448C180.643 7.97467 181.24 10.2147 181.24 12.52C181.24 14.8253 180.643 17.0653 179.448 19.24Z" fill="black"/>
</svg>
