<svg width="18" height="18" viewBox="0 0 18 18" fill="none" xmlns="http://www.w3.org/2000/svg">
<path d="M16.21 4.36001C15.17 2.26001 13.16 0.710011 10.83 0.200011C8.38997 -0.339989 5.88997 0.240011 3.97997 1.78001C2.05997 3.31001 0.969971 5.60001 0.969971 8.05001C0.969971 10.64 2.51997 13.35 4.85997 14.92V15.75C4.84997 16.03 4.83997 16.46 5.17997 16.81C5.52997 17.17 6.04997 17.21 6.45997 17.21H11.59C12.13 17.21 12.54 17.06 12.82 16.78C13.2 16.39 13.19 15.89 13.18 15.62V14.92C16.28 12.83 18.23 8.42001 16.21 4.36001Z" fill="#F0DF44"/>
</svg>
